name Walk6.mot
datacolumns 19
datarows 12
range 2.93500000 2.94600000
endheader

                time	   L_ground_force_vx	   L_ground_force_vy	   L_ground_force_vz	   L_ground_force_px	   L_ground_force_py	   L_ground_force_pz	   R_ground_force_vx	   R_ground_force_vy	   R_ground_force_vz	   R_ground_force_px	   R_ground_force_py	   R_ground_force_pz	   L_ground_torque_x	   L_ground_torque_y	   L_ground_torque_z	   R_ground_torque_x	   R_ground_torque_y	   R_ground_torque_z	
          2.93500000	          0.08603431	          0.22821397	          0.00430411	         -0.00043444	          0.00000000	         -0.00012364	         -7.05489613	        756.67382944	        -52.53976238	          0.13854060	          0.00000000	          0.13482524	          0.00000000	          0.00025793	          0.00000000	          0.00000000	         12.36767803	          0.00000000	
          2.93600000	          0.08230107	          0.21577876	          0.00370588	         -0.00043437	          0.00000000	         -0.00012360	         -6.70097445	        755.39561650	        -52.34683259	          0.13867082	          0.00000000	          0.13490106	          0.00000000	          0.00025622	          0.00000000	          0.00000000	         12.29495687	          0.00000000	
          2.93700000	          0.07857425	          0.20358546	          0.00314451	         -0.00043267	          0.00000000	         -0.00012310	         -6.34680346	        754.12032032	        -52.16038546	          0.13880077	          0.00000000	          0.13497747	          0.00000000	          0.00025369	          0.00000000	          0.00000000	         12.22259938	          0.00000000	
          2.93800000	          0.07486738	          0.19165958	          0.00261899	         -0.00042948	          0.00000000	         -0.00012218	         -5.99239673	        752.84801787	        -51.98059828	          0.13893047	          0.00000000	          0.13505445	          0.00000000	          0.00025041	          0.00000000	          0.00000000	         12.15062519	          0.00000000	
          2.93900000	          0.07119278	          0.18002346	          0.00212825	         -0.00042494	          0.00000000	         -0.00012087	         -5.63777250	        751.57880022	        -51.80763017	          0.13905993	          0.00000000	          0.13513201	          0.00000000	          0.00024647	          0.00000000	          0.00000000	         12.07905349	          0.00000000	
          2.94000000	          0.06756160	          0.16869642	          0.00167120	         -0.00041918	          0.00000000	         -0.00011922	         -5.28295334	        750.31277406	        -51.64162193	          0.13918916	          0.00000000	          0.13521014	          0.00000000	          0.00024193	          0.00000000	          0.00000000	         12.00790286	          0.00000000	
          2.94100000	          0.06398385	          0.15769498	          0.00124669	         -0.00041232	          0.00000000	         -0.00011726	         -4.92796599	        749.05006338	        -51.48269623	          0.13931817	          0.00000000	          0.13528884	          0.00000000	          0.00023686	          0.00000000	          0.00000000	         11.93719110	          0.00000000	
          2.94200000	          0.06046851	          0.14703305	          0.00085357	         -0.00040449	          0.00000000	         -0.00011502	         -4.57284133	        747.79081095	        -51.33095758	          0.13944699	          0.00000000	          0.13536812	          0.00000000	          0.00023133	          0.00000000	          0.00000000	         11.86693521	          0.00000000	
          2.94300000	          0.05702357	          0.13672203	          0.00049064	         -0.00039579	          0.00000000	         -0.00011254	         -4.21761469	        746.53517947	        -51.18649234	          0.13957562	          0.00000000	          0.13544796	          0.00000000	          0.00022539	          0.00000000	          0.00000000	         11.79715142	          0.00000000	
          2.94400000	          0.05365605	          0.12677105	          0.00015672	         -0.00038634	          0.00000000	         -0.00010984	         -3.86232619	        745.28335235	        -51.04936853	          0.13970409	          0.00000000	          0.13552838	          0.00000000	          0.00021911	          0.00000000	          0.00000000	         11.72785534	          0.00000000	
          2.94500000	          0.05037210	          0.11718711	         -0.00014940	         -0.00037624	          0.00000000	         -0.00010696	         -3.50702121	        744.03553440	        -50.91963576	          0.13983243	          0.00000000	          0.13560938	          0.00000000	          0.00021253	          0.00000000	          0.00000000	         11.65906221	          0.00000000	
          2.94600000	          0.04717702	          0.10797522	         -0.00042893	         -0.00036557	          0.00000000	         -0.00010391	         -3.15175073	        742.79195259	        -50.79732524	          0.13996067	          0.00000000	          0.13569095	          0.00000000	          0.00020571	          0.00000000	          0.00000000	         11.59078712	          0.00000000	
